<?xml version="1.0" encoding="UTF-8"?>
<svg id="g-graphsgender_finalcolor-Artboard_1-interactions-img" data-name="Layer 1" xmlns="http://www.w3.org/2000/svg" baseProfile="tiny" version="1.2" viewBox="0 0 1920 1080">
  <g id="text">
    <rect x="1740" y="969" width="65" height="26" fill="#f58025" stroke-width="0"/>
    <g>
      <path d="M1531.849,721.535c74.104-29.69,155.782-.674,184.099,54.402,22.513,43.788,10.342,102.192-31.442,143.552" fill="none" stroke="#000" stroke-width="3"/>
      <polygon points="1544.175 728.367 1535.303 720.183 1535.034 708.116 1515.601 729.076 1544.175 728.367" fill="#000" stroke-width="0"/>
    </g>
    <path d="M1539.761,935.571h-6.15v-2.22h14.97v2.22h-6.18v17.999h-2.64v-17.999Z" fill="#000" stroke-width="0"/>
    <path d="M1553.32,934.971c.03.9-.63,1.62-1.68,1.62-.931,0-1.59-.72-1.59-1.62,0-.93.689-1.649,1.649-1.649.99,0,1.62.72,1.62,1.649ZM1550.38,953.57v-14.52h2.641v14.52h-2.641Z" fill="#000" stroke-width="0"/>
    <path d="M1557.4,932.271h2.641v21.299h-2.641v-21.299Z" fill="#000" stroke-width="0"/>
    <path d="M1564.36,953.57c.06-.99.119-2.46.119-3.75v-17.549h2.61v9.119h.06c.931-1.62,2.61-2.67,4.95-2.67,3.6,0,6.149,3,6.12,7.41,0,5.189-3.271,7.77-6.51,7.77-2.101,0-3.78-.811-4.86-2.73h-.09l-.12,2.4h-2.279ZM1567.09,947.751c0,.329.06.659.12.96.51,1.829,2.04,3.09,3.96,3.09,2.76,0,4.409-2.25,4.409-5.58,0-2.91-1.5-5.399-4.319-5.399-1.8,0-3.479,1.229-4.02,3.239-.061.3-.15.66-.15,1.08v2.61Z" fill="#000" stroke-width="0"/>
    <path d="M1593.699,949.61c0,1.5.029,2.82.119,3.96h-2.34l-.149-2.37h-.061c-.689,1.17-2.22,2.7-4.8,2.7-2.279,0-5.01-1.26-5.01-6.359v-8.49h2.641v8.04c0,2.76.84,4.619,3.239,4.619,1.771,0,3-1.229,3.48-2.399.149-.39.239-.87.239-1.35v-8.91h2.641v10.56Z" fill="#000" stroke-width="0"/>
    <path d="M1598.079,943.581c0-1.71-.029-3.181-.119-4.53h2.31l.09,2.85h.12c.66-1.949,2.25-3.18,4.02-3.18.3,0,.511.03.75.09v2.49c-.27-.06-.54-.09-.899-.09-1.86,0-3.18,1.41-3.54,3.39-.061.36-.12.78-.12,1.23v7.739h-2.61v-9.989Z" fill="#000" stroke-width="0"/>
    <path d="M1620.159,939.051c-.06,1.05-.12,2.22-.12,3.99v8.43c0,3.329-.66,5.369-2.069,6.63-1.41,1.319-3.45,1.739-5.28,1.739-1.739,0-3.659-.42-4.83-1.2l.66-2.01c.96.601,2.46,1.141,4.26,1.141,2.7,0,4.68-1.41,4.68-5.07v-1.62h-.06c-.81,1.351-2.37,2.431-4.62,2.431-3.6,0-6.18-3.061-6.18-7.08,0-4.92,3.21-7.71,6.54-7.71,2.52,0,3.899,1.32,4.53,2.521h.06l.12-2.19h2.31ZM1617.43,944.78c0-.449-.03-.84-.15-1.199-.479-1.53-1.77-2.79-3.689-2.79-2.521,0-4.32,2.13-4.32,5.489,0,2.851,1.44,5.22,4.29,5.22,1.62,0,3.09-1.02,3.66-2.699.149-.45.21-.96.21-1.41v-2.61Z" fill="#000" stroke-width="0"/>
    <path d="M1633.719,934.971c.03.9-.63,1.62-1.68,1.62-.931,0-1.59-.72-1.59-1.62,0-.93.689-1.649,1.649-1.649.99,0,1.62.72,1.62,1.649ZM1630.778,953.57v-14.52h2.641v14.52h-2.641Z" fill="#000" stroke-width="0"/>
    <path d="M1637.438,950.87c.78.511,2.16,1.05,3.479,1.05,1.92,0,2.82-.96,2.82-2.159,0-1.26-.75-1.95-2.7-2.67-2.609-.931-3.84-2.37-3.84-4.11,0-2.34,1.89-4.26,5.01-4.26,1.47,0,2.76.42,3.57.9l-.66,1.92c-.57-.36-1.62-.84-2.97-.84-1.561,0-2.431.899-2.431,1.979,0,1.2.87,1.74,2.761,2.46,2.52.96,3.81,2.22,3.81,4.38,0,2.55-1.98,4.35-5.43,4.35-1.59,0-3.061-.39-4.08-.99l.66-2.01Z" fill="#000" stroke-width="0"/>
    <path d="M1669.178,946.19c0,5.37-3.72,7.71-7.229,7.71-3.93,0-6.96-2.88-6.96-7.47,0-4.86,3.18-7.71,7.2-7.71,4.17,0,6.989,3.03,6.989,7.47ZM1657.658,946.341c0,3.18,1.83,5.579,4.41,5.579,2.52,0,4.41-2.369,4.41-5.64,0-2.46-1.23-5.579-4.351-5.579s-4.47,2.88-4.47,5.64Z" fill="#000" stroke-width="0"/>
    <path d="M1672.508,942.98c0-1.5-.029-2.729-.119-3.93h2.34l.149,2.4h.061c.72-1.38,2.399-2.73,4.8-2.73,2.01,0,5.13,1.2,5.13,6.18v8.67h-2.641v-8.37c0-2.34-.87-4.289-3.359-4.289-1.74,0-3.09,1.229-3.54,2.699-.12.33-.18.78-.18,1.23v8.729h-2.641v-10.59Z" fill="#000" stroke-width="0"/>
    <path d="M1690.628,946.791c.06,3.569,2.34,5.039,4.979,5.039,1.89,0,3.03-.33,4.02-.75l.45,1.891c-.93.42-2.52.899-4.83.899-4.47,0-7.14-2.939-7.14-7.319s2.58-7.83,6.81-7.83c4.74,0,6,4.17,6,6.84,0,.54-.06.96-.09,1.23h-10.199ZM1698.367,944.9c.03-1.68-.689-4.289-3.66-4.289-2.67,0-3.84,2.459-4.05,4.289h7.71Z" fill="#000" stroke-width="0"/>
    <path d="M1723.687,946.19c0,5.37-3.72,7.71-7.229,7.71-3.93,0-6.96-2.88-6.96-7.47,0-4.86,3.181-7.71,7.2-7.71,4.17,0,6.989,3.03,6.989,7.47ZM1712.167,946.341c0,3.18,1.83,5.579,4.41,5.579,2.52,0,4.41-2.369,4.41-5.64,0-2.46-1.23-5.579-4.351-5.579s-4.47,2.88-4.47,5.64Z" fill="#000" stroke-width="0"/>
    <path d="M1727.287,953.57v-12.51h-2.04v-2.01h2.04v-.689c0-2.04.45-3.9,1.68-5.07.99-.96,2.311-1.35,3.54-1.35.93,0,1.74.21,2.25.42l-.36,2.04c-.39-.181-.93-.33-1.68-.33-2.25,0-2.82,1.979-2.82,4.199v.78h3.511v2.01h-3.511v12.51h-2.609Z" fill="#000" stroke-width="0"/>
    <path d="M1745.317,934.881v4.17h3.779v2.01h-3.779v7.83c0,1.8.51,2.819,1.979,2.819.69,0,1.2-.09,1.53-.18l.12,1.98c-.511.21-1.32.359-2.34.359-1.23,0-2.221-.39-2.851-1.109-.75-.78-1.02-2.07-1.02-3.78v-7.92h-2.25v-2.01h2.25v-3.479l2.58-.69Z" fill="#000" stroke-width="0"/>
    <path d="M1752.066,932.271h2.641v9.06h.06c.42-.75,1.08-1.41,1.89-1.86.78-.45,1.71-.75,2.7-.75,1.95,0,5.07,1.2,5.07,6.21v8.64h-2.641v-8.34c0-2.34-.87-4.319-3.359-4.319-1.71,0-3.06,1.199-3.54,2.64-.15.36-.18.75-.18,1.26v8.76h-2.641v-21.299Z" fill="#000" stroke-width="0"/>
    <path d="M1770.187,946.791c.06,3.569,2.34,5.039,4.979,5.039,1.89,0,3.03-.33,4.02-.75l.45,1.891c-.93.42-2.52.899-4.83.899-4.47,0-7.14-2.939-7.14-7.319s2.58-7.83,6.81-7.83c4.74,0,6,4.17,6,6.84,0,.54-.06.96-.09,1.23h-10.199ZM1777.926,944.9c.03-1.68-.689-4.289-3.66-4.289-2.67,0-3.84,2.459-4.05,4.289h7.71Z" fill="#000" stroke-width="0"/>
    <path d="M1539.011,970.881v4.17h3.779v2.01h-3.779v7.83c0,1.8.51,2.819,1.979,2.819.69,0,1.2-.09,1.53-.18l.12,1.98c-.511.21-1.32.359-2.34.359-1.23,0-2.221-.39-2.851-1.109-.75-.78-1.02-2.07-1.02-3.78v-7.92h-2.25v-2.01h2.25v-3.479l2.58-.69Z" fill="#000" stroke-width="0"/>
    <path d="M1547.08,975.051l1.92,7.38c.42,1.62.81,3.12,1.08,4.62h.09c.33-1.471.81-3.03,1.29-4.59l2.369-7.41h2.221l2.249,7.26c.54,1.74.96,3.27,1.29,4.74h.091c.239-1.471.63-3,1.109-4.71l2.07-7.29h2.609l-4.68,14.52h-2.399l-2.221-6.93c-.51-1.62-.93-3.06-1.29-4.77h-.06c-.36,1.739-.81,3.239-1.32,4.8l-2.34,6.899h-2.399l-4.38-14.52h2.7Z" fill="#000" stroke-width="0"/>
    <path d="M1580.949,982.19c0,5.37-3.72,7.71-7.229,7.71-3.93,0-6.96-2.88-6.96-7.47,0-4.86,3.18-7.71,7.2-7.71,4.17,0,6.989,3.03,6.989,7.47ZM1569.43,982.341c0,3.18,1.83,5.579,4.41,5.579,2.52,0,4.41-2.369,4.41-5.64,0-2.46-1.23-5.579-4.351-5.579s-4.47,2.88-4.47,5.64Z" fill="#000" stroke-width="0"/>
    <path d="M1600.988,989.03c-.689.36-2.22.84-4.169.84-4.38,0-7.23-2.97-7.23-7.409,0-4.47,3.061-7.71,7.8-7.71,1.561,0,2.94.39,3.66.75l-.6,2.04c-.631-.36-1.62-.69-3.061-.69-3.33,0-5.13,2.46-5.13,5.49,0,3.359,2.16,5.43,5.04,5.43,1.5,0,2.49-.39,3.24-.72l.449,1.979Z" fill="#000" stroke-width="0"/>
    <path d="M1607.02,970.971c.03.9-.63,1.62-1.68,1.62-.931,0-1.59-.72-1.59-1.62,0-.93.689-1.649,1.649-1.649.99,0,1.62.72,1.62,1.649ZM1604.079,989.57v-14.52h2.641v14.52h-2.641Z" fill="#000" stroke-width="0"/>
    <path d="M1614.279,970.881v4.17h3.779v2.01h-3.779v7.83c0,1.8.51,2.819,1.979,2.819.69,0,1.2-.09,1.53-.18l.12,1.98c-.511.21-1.32.359-2.34.359-1.23,0-2.221-.39-2.851-1.109-.75-.78-1.02-2.07-1.02-3.78v-7.92h-2.25v-2.01h2.25v-3.479l2.58-.69Z" fill="#000" stroke-width="0"/>
    <path d="M1623.969,970.971c.03.9-.63,1.62-1.68,1.62-.931,0-1.59-.72-1.59-1.62,0-.93.689-1.649,1.649-1.649.99,0,1.62.72,1.62,1.649ZM1621.028,989.57v-14.52h2.641v14.52h-2.641Z" fill="#000" stroke-width="0"/>
    <path d="M1629.52,982.791c.06,3.569,2.34,5.039,4.979,5.039,1.89,0,3.03-.33,4.02-.75l.45,1.891c-.93.42-2.52.899-4.83.899-4.47,0-7.14-2.939-7.14-7.319s2.58-7.83,6.81-7.83c4.74,0,6,4.17,6,6.84,0,.54-.06.96-.09,1.23h-10.199ZM1637.259,980.9c.03-1.68-.689-4.289-3.66-4.289-2.67,0-3.84,2.459-4.05,4.289h7.71Z" fill="#000" stroke-width="0"/>
    <path d="M1642.719,986.87c.78.511,2.16,1.05,3.479,1.05,1.92,0,2.82-.96,2.82-2.159,0-1.26-.75-1.95-2.7-2.67-2.609-.931-3.84-2.37-3.84-4.11,0-2.34,1.89-4.26,5.01-4.26,1.47,0,2.76.42,3.57.9l-.66,1.92c-.57-.36-1.62-.84-2.97-.84-1.561,0-2.431.899-2.431,1.979,0,1.2.87,1.74,2.761,2.46,2.52.96,3.81,2.22,3.81,4.38,0,2.55-1.98,4.35-5.43,4.35-1.59,0-3.061-.39-4.08-.99l.66-2.01Z" fill="#000" stroke-width="0"/>
    <path d="M1662.368,975.051l1.92,7.38c.42,1.62.81,3.12,1.079,4.62h.091c.33-1.471.81-3.03,1.29-4.59l2.369-7.41h2.221l2.249,7.26c.54,1.74.96,3.27,1.29,4.74h.09c.24-1.471.631-3,1.11-4.71l2.07-7.29h2.609l-4.68,14.52h-2.399l-2.221-6.93c-.51-1.62-.93-3.06-1.289-4.77h-.061c-.36,1.739-.81,3.239-1.32,4.8l-2.34,6.899h-2.399l-4.38-14.52h2.7Z" fill="#000" stroke-width="0"/>
    <path d="M1683.397,968.271h2.641v9.06h.06c.42-.75,1.08-1.41,1.89-1.86.78-.45,1.71-.75,2.7-.75,1.95,0,5.07,1.2,5.07,6.21v8.64h-2.641v-8.34c0-2.34-.869-4.319-3.359-4.319-1.71,0-3.06,1.199-3.54,2.64-.15.36-.18.75-.18,1.26v8.76h-2.641v-21.299Z" fill="#000" stroke-width="0"/>
    <path d="M1701.518,982.791c.06,3.569,2.34,5.039,4.979,5.039,1.89,0,3.03-.33,4.02-.75l.45,1.891c-.93.42-2.52.899-4.83.899-4.47,0-7.14-2.939-7.14-7.319s2.58-7.83,6.81-7.83c4.74,0,6,4.17,6,6.84,0,.54-.06.96-.09,1.23h-10.199ZM1709.257,980.9c.03-1.68-.689-4.289-3.66-4.289-2.67,0-3.84,2.459-4.05,4.289h7.71Z" fill="#000" stroke-width="0"/>
    <path d="M1715.077,979.581c0-1.71-.029-3.181-.119-4.53h2.31l.09,2.85h.12c.66-1.949,2.25-3.18,4.02-3.18.3,0,.511.03.75.09v2.49c-.27-.06-.54-.09-.899-.09-1.86,0-3.18,1.41-3.54,3.39-.061.36-.12.78-.12,1.23v7.739h-2.61v-9.989Z" fill="#000" stroke-width="0"/>
    <path d="M1726.058,982.791c.06,3.569,2.34,5.039,4.979,5.039,1.89,0,3.03-.33,4.02-.75l.45,1.891c-.93.42-2.52.899-4.83.899-4.47,0-7.14-2.939-7.14-7.319s2.58-7.83,6.81-7.83c4.74,0,6,4.17,6,6.84,0,.54-.06.96-.09,1.23h-10.199ZM1733.797,980.9c.03-1.68-.689-4.289-3.66-4.289-2.67,0-3.84,2.459-4.05,4.289h7.71Z" fill="#000" stroke-width="0"/>
    <path d="M1745.977,978.98c0-1.5-.029-2.729-.119-3.93h2.31l.12,2.34h.09c.81-1.38,2.16-2.67,4.56-2.67,1.98,0,3.48,1.2,4.11,2.91h.06c.45-.81,1.021-1.44,1.62-1.89.87-.66,1.83-1.021,3.21-1.021,1.92,0,4.77,1.26,4.77,6.3v8.55h-2.58v-8.22c0-2.79-1.02-4.47-3.149-4.47-1.5,0-2.67,1.11-3.12,2.399-.12.36-.21.841-.21,1.32v8.97h-2.58v-8.699c0-2.311-1.02-3.99-3.029-3.99-1.65,0-2.851,1.32-3.271,2.64-.149.391-.21.84-.21,1.29v8.76h-2.58v-10.59Z" fill="#000" stroke-width="0"/>
    <path d="M1772.467,982.791c.06,3.569,2.34,5.039,4.979,5.039,1.89,0,3.03-.33,4.02-.75l.45,1.891c-.93.42-2.52.899-4.83.899-4.47,0-7.14-2.939-7.14-7.319s2.58-7.83,6.81-7.83c4.74,0,6,4.17,6,6.84,0,.54-.06.96-.09,1.23h-10.199ZM1780.206,980.9c.03-1.68-.689-4.289-3.66-4.289-2.67,0-3.84,2.459-4.05,4.289h7.71Z" fill="#000" stroke-width="0"/>
    <path d="M1786.026,978.98c0-1.5-.029-2.729-.119-3.93h2.34l.149,2.4h.061c.72-1.38,2.399-2.73,4.8-2.73,2.01,0,5.13,1.2,5.13,6.18v8.67h-2.641v-8.37c0-2.34-.869-4.289-3.359-4.289-1.74,0-3.09,1.229-3.54,2.699-.12.33-.18.78-.18,1.23v8.729h-2.641v-10.59Z" fill="#000" stroke-width="0"/>
    <g>
      <path d="M1544.482,1022.912l-.21-1.83h-.09c-.81,1.14-2.37,2.16-4.439,2.16-2.94,0-4.44-2.07-4.44-4.17,0-3.51,3.12-5.43,8.729-5.399v-.301c0-1.199-.33-3.359-3.3-3.359-1.35,0-2.76.42-3.779,1.08l-.601-1.74c1.2-.78,2.94-1.29,4.771-1.29,4.439,0,5.52,3.03,5.52,5.94v5.43c0,1.26.06,2.489.24,3.479h-2.4ZM1544.093,1015.502c-2.88-.06-6.15.45-6.15,3.271,0,1.71,1.141,2.52,2.49,2.52,1.89,0,3.09-1.2,3.51-2.43.09-.271.15-.57.15-.84v-2.521Z" fill="#000" stroke-width="0"/>
      <path d="M1550.902,1012.923c0-1.71-.029-3.181-.119-4.53h2.31l.09,2.85h.12c.66-1.949,2.25-3.18,4.02-3.18.3,0,.51.03.75.09v2.49c-.27-.06-.54-.09-.899-.09-1.86,0-3.181,1.41-3.54,3.39-.061.36-.12.78-.12,1.23v7.739h-2.61v-9.989Z" fill="#000" stroke-width="0"/>
      <path d="M1561.883,1016.133c.06,3.569,2.34,5.039,4.979,5.039,1.89,0,3.03-.33,4.02-.75l.45,1.891c-.93.42-2.52.899-4.83.899-4.47,0-7.14-2.939-7.14-7.319s2.58-7.83,6.81-7.83c4.74,0,6,4.17,6,6.84,0,.54-.06.96-.09,1.23h-10.199ZM1569.622,1014.242c.03-1.68-.689-4.289-3.66-4.289-2.67,0-3.84,2.459-4.05,4.289h7.71Z" fill="#000" stroke-width="0"/>
      <path d="M1584.742,1004.312c.03.9-.63,1.62-1.68,1.62-.931,0-1.59-.72-1.59-1.62,0-.93.689-1.649,1.649-1.649.99,0,1.62.72,1.62,1.649ZM1581.802,1022.912v-14.52h2.641v14.52h-2.641Z" fill="#000" stroke-width="0"/>
      <path d="M1588.821,1012.322c0-1.5-.029-2.729-.119-3.93h2.34l.149,2.4h.061c.72-1.38,2.399-2.73,4.8-2.73,2.01,0,5.13,1.2,5.13,6.18v8.67h-2.641v-8.37c0-2.34-.869-4.289-3.359-4.289-1.74,0-3.09,1.229-3.54,2.699-.12.33-.18.78-.18,1.23v8.729h-2.641v-10.59Z" fill="#000" stroke-width="0"/>
      <path d="M1611.831,1001.613h2.641v9.06h.06c.42-.75,1.08-1.41,1.89-1.86.78-.45,1.71-.75,2.7-.75,1.95,0,5.07,1.2,5.07,6.21v8.64h-2.641v-8.34c0-2.34-.869-4.319-3.359-4.319-1.71,0-3.06,1.199-3.54,2.64-.15.36-.18.75-.18,1.26v8.76h-2.641v-21.299Z" fill="#000" stroke-width="0"/>
      <path d="M1631.421,1004.312c.03.9-.63,1.62-1.68,1.62-.931,0-1.59-.72-1.59-1.62,0-.93.689-1.649,1.649-1.649.99,0,1.62.72,1.62,1.649ZM1628.48,1022.912v-14.52h2.641v14.52h-2.641Z" fill="#000" stroke-width="0"/>
      <path d="M1648.011,1008.393c-.06,1.05-.12,2.22-.12,3.99v8.43c0,3.329-.66,5.369-2.069,6.63-1.41,1.319-3.45,1.739-5.28,1.739-1.739,0-3.659-.42-4.83-1.2l.66-2.01c.96.601,2.46,1.141,4.26,1.141,2.7,0,4.68-1.41,4.68-5.07v-1.62h-.06c-.81,1.351-2.37,2.431-4.62,2.431-3.6,0-6.18-3.061-6.18-7.08,0-4.92,3.21-7.71,6.54-7.71,2.52,0,3.899,1.32,4.53,2.521h.06l.12-2.19h2.31ZM1645.281,1014.122c0-.449-.03-.84-.15-1.199-.479-1.53-1.77-2.79-3.689-2.79-2.521,0-4.32,2.13-4.32,5.489,0,2.851,1.44,5.22,4.29,5.22,1.62,0,3.09-1.02,3.66-2.699.149-.45.21-.96.21-1.41v-2.61Z" fill="#000" stroke-width="0"/>
      <path d="M1652.271,1001.613h2.641v9.06h.06c.42-.75,1.08-1.41,1.89-1.86.78-.45,1.71-.75,2.7-.75,1.95,0,5.07,1.2,5.07,6.21v8.64h-2.641v-8.34c0-2.34-.869-4.319-3.359-4.319-1.71,0-3.06,1.199-3.54,2.64-.15.36-.18.75-.18,1.26v8.76h-2.641v-21.299Z" fill="#000" stroke-width="0"/>
      <path d="M1670.391,1016.133c.06,3.569,2.34,5.039,4.979,5.039,1.89,0,3.03-.33,4.02-.75l.45,1.891c-.93.42-2.52.899-4.83.899-4.47,0-7.14-2.939-7.14-7.319s2.58-7.83,6.81-7.83c4.74,0,6,4.17,6,6.84,0,.54-.06.96-.09,1.23h-10.199ZM1678.13,1014.242c.03-1.68-.689-4.289-3.66-4.289-2.67,0-3.84,2.459-4.05,4.289h7.71Z" fill="#000" stroke-width="0"/>
      <path d="M1683.95,1012.923c0-1.71-.029-3.181-.119-4.53h2.31l.09,2.85h.12c.66-1.949,2.25-3.18,4.02-3.18.3,0,.511.03.75.09v2.49c-.27-.06-.54-.09-.899-.09-1.86,0-3.18,1.41-3.54,3.39-.061.36-.12.78-.12,1.23v7.739h-2.61v-9.989Z" fill="#000" stroke-width="0"/>
      <path d="M1712.659,1001.613v17.549c0,1.29.03,2.76.12,3.75h-2.37l-.12-2.52h-.06c-.811,1.619-2.58,2.85-4.95,2.85-3.51,0-6.21-2.97-6.21-7.38-.029-4.83,2.97-7.8,6.51-7.8,2.22,0,3.72,1.05,4.38,2.22h.061v-8.669h2.64ZM1710.02,1014.303c0-.33-.03-.78-.12-1.11-.391-1.68-1.83-3.06-3.81-3.06-2.73,0-4.351,2.399-4.351,5.609,0,2.94,1.44,5.37,4.29,5.37,1.77,0,3.39-1.17,3.87-3.15.09-.359.12-.72.12-1.14v-2.52Z" fill="#000" stroke-width="0"/>
      <path d="M1718.51,1016.133c.06,3.569,2.34,5.039,4.979,5.039,1.89,0,3.03-.33,4.02-.75l.45,1.891c-.93.42-2.52.899-4.83.899-4.47,0-7.14-2.939-7.14-7.319s2.58-7.83,6.81-7.83c4.74,0,6,4.17,6,6.84,0,.54-.06.96-.09,1.23h-10.199ZM1726.249,1014.242c.03-1.68-.689-4.289-3.66-4.289-2.67,0-3.84,2.459-4.05,4.289h7.71Z" fill="#000" stroke-width="0"/>
      <path d="M1732.069,1012.322c0-1.5-.029-2.729-.119-3.93h2.31l.12,2.34h.09c.81-1.38,2.16-2.67,4.56-2.67,1.98,0,3.48,1.2,4.11,2.91h.06c.45-.81,1.021-1.44,1.62-1.89.87-.66,1.83-1.021,3.21-1.021,1.92,0,4.77,1.26,4.77,6.3v8.55h-2.58v-8.22c0-2.79-1.02-4.47-3.149-4.47-1.5,0-2.67,1.11-3.12,2.399-.12.36-.21.841-.21,1.32v8.97h-2.58v-8.699c0-2.311-1.02-3.99-3.029-3.99-1.65,0-2.851,1.32-3.271,2.64-.149.391-.21.84-.21,1.29v8.76h-2.58v-10.59Z" fill="#000" stroke-width="0"/>
      <path d="M1765.129,1022.912l-.21-1.83h-.09c-.81,1.14-2.37,2.16-4.439,2.16-2.94,0-4.44-2.07-4.44-4.17,0-3.51,3.12-5.43,8.729-5.399v-.301c0-1.199-.33-3.359-3.3-3.359-1.35,0-2.76.42-3.779,1.08l-.601-1.74c1.2-.78,2.94-1.29,4.771-1.29,4.439,0,5.52,3.03,5.52,5.94v5.43c0,1.26.06,2.489.24,3.479h-2.4ZM1764.739,1015.502c-2.88-.06-6.15.45-6.15,3.271,0,1.71,1.141,2.52,2.49,2.52,1.89,0,3.09-1.2,3.51-2.43.09-.271.15-.57.15-.84v-2.521Z" fill="#000" stroke-width="0"/>
      <path d="M1771.549,1012.322c0-1.5-.029-2.729-.119-3.93h2.34l.149,2.4h.061c.72-1.38,2.399-2.73,4.8-2.73,2.01,0,5.13,1.2,5.13,6.18v8.67h-2.641v-8.37c0-2.34-.87-4.289-3.359-4.289-1.74,0-3.09,1.229-3.54,2.699-.12.33-.18.78-.18,1.23v8.729h-2.641v-10.59Z" fill="#000" stroke-width="0"/>
      <path d="M1800.738,1001.613v17.549c0,1.29.03,2.76.12,3.75h-2.37l-.12-2.52h-.06c-.811,1.619-2.58,2.85-4.95,2.85-3.51,0-6.21-2.97-6.21-7.38-.029-4.83,2.97-7.8,6.51-7.8,2.22,0,3.72,1.05,4.38,2.22h.061v-8.669h2.64ZM1798.099,1014.303c0-.33-.03-.78-.12-1.11-.391-1.68-1.83-3.06-3.811-3.06-2.729,0-4.35,2.399-4.35,5.609,0,2.94,1.44,5.37,4.29,5.37,1.77,0,3.39-1.17,3.87-3.15.09-.359.12-.72.12-1.14v-2.52Z" fill="#000" stroke-width="0"/>
    </g>
  </g>
  <g id="text2">
    <rect x="274" y="917" width="106" height="29" fill="#fce883" stroke-width="0"/>
    <g>
      <path d="M568.598,849.831c19.178,54.972-5.221,112.667-48.141,131.72-34.971,15.524-80.753,4.734-112.499-27.658" fill="none" stroke="#000" stroke-width="3"/>
      <polygon points="561.383 861.977 569.812 853.338 581.883 853.408 561.477 833.395 561.383 861.977" fill="#000" stroke-width="0"/>
    </g>
    <g>
      <path d="M169.263,919.069v20.219h-2.61v-20.219h2.61Z" fill="#000" stroke-width="0"/>
      <path d="M174.033,928.698c0-1.5-.03-2.729-.12-3.93h2.34l.15,2.4h.06c.72-1.38,2.4-2.73,4.8-2.73,2.01,0,5.13,1.2,5.13,6.18v8.67h-2.64v-8.37c0-2.34-.87-4.289-3.36-4.289-1.74,0-3.09,1.229-3.54,2.699-.12.33-.18.78-.18,1.23v8.729h-2.64v-10.59Z" fill="#000" stroke-width="0"/>
      <path d="M197.133,919.339c1.14-.24,2.94-.42,4.77-.42,2.61,0,4.29.45,5.55,1.47,1.05.78,1.68,1.98,1.68,3.57,0,1.949-1.29,3.659-3.42,4.439v.061c1.92.479,4.17,2.069,4.17,5.069,0,1.74-.69,3.06-1.71,4.05-1.41,1.29-3.69,1.89-6.99,1.89-1.8,0-3.18-.12-4.05-.239v-19.89ZM199.743,927.618h2.37c2.76,0,4.38-1.439,4.38-3.39,0-2.37-1.8-3.3-4.44-3.3-1.2,0-1.89.09-2.31.18v6.51ZM199.743,937.309c.51.09,1.26.119,2.19.119,2.7,0,5.19-.989,5.19-3.93,0-2.76-2.37-3.899-5.22-3.899h-2.16v7.71Z" fill="#000" stroke-width="0"/>
      <path d="M213.303,929.299c0-1.71-.03-3.181-.12-4.53h2.31l.09,2.85h.12c.66-1.949,2.25-3.18,4.02-3.18.3,0,.51.03.75.09v2.49c-.27-.06-.54-.09-.9-.09-1.86,0-3.18,1.41-3.54,3.39-.06.36-.12.78-.12,1.23v7.739h-2.61v-9.989Z" fill="#000" stroke-width="0"/>
      <path d="M224.282,932.509c.06,3.569,2.34,5.039,4.98,5.039,1.89,0,3.03-.33,4.02-.75l.45,1.891c-.93.42-2.52.899-4.83.899-4.47,0-7.14-2.939-7.14-7.319s2.58-7.83,6.81-7.83c4.74,0,6,4.17,6,6.84,0,.54-.06.96-.09,1.23h-10.2ZM232.022,930.618c.03-1.68-.69-4.29-3.66-4.29-2.67,0-3.84,2.46-4.05,4.29h7.709Z" fill="#000" stroke-width="0"/>
      <path d="M250.382,917.989v17.549c0,1.29.03,2.76.12,3.75h-2.37l-.12-2.52h-.06c-.81,1.619-2.58,2.85-4.95,2.85-3.51,0-6.209-2.97-6.209-7.38-.03-4.83,2.97-7.8,6.51-7.8,2.22,0,3.72,1.05,4.379,2.22h.06v-8.669h2.64ZM247.742,930.679c0-.33-.03-.78-.12-1.11-.39-1.68-1.83-3.06-3.81-3.06-2.73,0-4.35,2.399-4.35,5.609,0,2.94,1.44,5.37,4.29,5.37,1.77,0,3.39-1.17,3.87-3.15.09-.359.12-.72.12-1.14v-2.52Z" fill="#000" stroke-width="0"/>
      <path d="M262.802,939.288l-.21-1.83h-.09c-.81,1.14-2.37,2.16-4.44,2.16-2.94,0-4.44-2.07-4.44-4.17,0-3.51,3.12-5.43,8.73-5.399v-.301c0-1.199-.33-3.359-3.3-3.359-1.35,0-2.76.42-3.78,1.08l-.6-1.74c1.2-.78,2.94-1.29,4.77-1.29,4.44,0,5.52,3.03,5.52,5.94v5.43c0,1.26.06,2.489.24,3.479h-2.4ZM262.412,931.878c-2.88-.06-6.15.45-6.15,3.271,0,1.71,1.14,2.52,2.49,2.52,1.89,0,3.09-1.2,3.51-2.43.09-.27.15-.57.15-.84v-2.521Z" fill="#000" stroke-width="0"/>
      <path d="M267.512,942.978c.66-1.77,1.47-4.979,1.8-7.169l2.94-.301c-.69,2.551-2.01,5.88-2.85,7.29l-1.89.18Z" fill="#000" stroke-width="0"/>
      <path d="M282.841,924.769l1.92,7.38c.42,1.62.81,3.12,1.08,4.62h.09c.33-1.471.81-3.03,1.29-4.59l2.37-7.41h2.22l2.25,7.26c.54,1.74.96,3.27,1.29,4.74h.09c.24-1.471.63-3,1.11-4.71l2.07-7.29h2.61l-4.68,14.52h-2.4l-2.22-6.93c-.51-1.62-.93-3.06-1.29-4.77h-.06c-.36,1.739-.81,3.239-1.32,4.8l-2.34,6.899h-2.4l-4.38-14.52h2.7Z" fill="#000" stroke-width="0"/>
      <path d="M316.711,931.908c0,5.37-3.72,7.71-7.23,7.71-3.93,0-6.959-2.88-6.959-7.47,0-4.859,3.18-7.71,7.2-7.71,4.169,0,6.99,3.03,6.99,7.47ZM305.191,932.059c0,3.18,1.83,5.579,4.41,5.579,2.52,0,4.41-2.369,4.41-5.64,0-2.46-1.23-5.579-4.35-5.579s-4.47,2.88-4.47,5.64Z" fill="#000" stroke-width="0"/>
      <path d="M320.041,928.698c0-1.5-.03-2.729-.12-3.93h2.31l.12,2.34h.09c.81-1.38,2.16-2.67,4.56-2.67,1.98,0,3.48,1.2,4.11,2.91h.06c.45-.81,1.02-1.44,1.62-1.89.87-.66,1.83-1.021,3.21-1.021,1.92,0,4.77,1.26,4.77,6.3v8.55h-2.58v-8.22c0-2.79-1.02-4.47-3.15-4.47-1.5,0-2.67,1.11-3.12,2.399-.12.36-.21.841-.21,1.32v8.97h-2.58v-8.699c0-2.311-1.02-3.99-3.03-3.99-1.65,0-2.85,1.32-3.27,2.64-.15.391-.21.84-.21,1.29v8.76h-2.58v-10.59Z" fill="#000" stroke-width="0"/>
      <path d="M346.531,932.509c.06,3.569,2.34,5.039,4.98,5.039,1.89,0,3.03-.33,4.02-.75l.45,1.891c-.93.42-2.52.899-4.83.899-4.47,0-7.14-2.939-7.14-7.319s2.58-7.83,6.81-7.83c4.74,0,6,4.17,6,6.84,0,.54-.06.96-.09,1.23h-10.2ZM354.271,930.618c.03-1.68-.69-4.29-3.66-4.29-2.67,0-3.84,2.46-4.05,4.29h7.709Z" fill="#000" stroke-width="0"/>
      <path d="M360.091,928.698c0-1.5-.03-2.729-.12-3.93h2.34l.15,2.4h.06c.72-1.38,2.4-2.73,4.8-2.73,2.01,0,5.13,1.2,5.13,6.18v8.67h-2.64v-8.37c0-2.34-.87-4.289-3.36-4.289-1.74,0-3.09,1.229-3.54,2.699-.12.33-.18.78-.18,1.23v8.729h-2.64v-10.59Z" fill="#000" stroke-width="0"/>
      <path d="M166.563,953.989h2.64v9.06h.06c.42-.75,1.08-1.41,1.89-1.86.78-.45,1.71-.75,2.7-.75,1.95,0,5.07,1.2,5.07,6.21v8.64h-2.64v-8.34c0-2.34-.87-4.319-3.36-4.319-1.71,0-3.06,1.199-3.54,2.64-.15.36-.18.75-.18,1.26v8.76h-2.64v-21.299Z" fill="#000" stroke-width="0"/>
      <path d="M191.253,975.288l-.21-1.83h-.09c-.81,1.14-2.37,2.16-4.44,2.16-2.94,0-4.44-2.07-4.44-4.17,0-3.51,3.12-5.43,8.73-5.399v-.301c0-1.199-.33-3.359-3.3-3.359-1.35,0-2.76.42-3.78,1.08l-.6-1.74c1.2-.78,2.94-1.29,4.77-1.29,4.44,0,5.52,3.03,5.52,5.94v5.43c0,1.26.06,2.489.24,3.479h-2.4ZM190.863,967.878c-2.88-.06-6.15.45-6.15,3.271,0,1.71,1.14,2.52,2.49,2.52,1.89,0,3.09-1.2,3.51-2.43.09-.27.15-.57.15-.84v-2.521Z" fill="#000" stroke-width="0"/>
      <path d="M198.453,960.769l2.85,8.16c.48,1.319.87,2.52,1.17,3.72h.09c.33-1.2.75-2.4,1.23-3.72l2.82-8.16h2.76l-5.7,14.52h-2.52l-5.52-14.52h2.82Z" fill="#000" stroke-width="0"/>
      <path d="M213.033,968.509c.06,3.569,2.34,5.039,4.98,5.039,1.89,0,3.03-.33,4.02-.75l.45,1.891c-.93.42-2.52.899-4.83.899-4.47,0-7.14-2.939-7.14-7.319s2.58-7.83,6.81-7.83c4.74,0,6,4.17,6,6.84,0,.54-.06.96-.09,1.23h-10.2ZM220.772,966.618c.03-1.68-.69-4.29-3.66-4.29-2.67,0-3.84,2.46-4.05,4.29h7.709Z" fill="#000" stroke-width="0"/>
      <path d="M236.132,956.599v4.17h3.78v2.01h-3.78v7.83c0,1.8.51,2.819,1.98,2.819.69,0,1.2-.09,1.53-.18l.12,1.98c-.51.21-1.32.359-2.34.359-1.23,0-2.22-.39-2.85-1.109-.75-.78-1.02-2.07-1.02-3.78v-7.92h-2.25v-2.01h2.25v-3.479l2.58-.69Z" fill="#000" stroke-width="0"/>
      <path d="M242.882,953.989h2.64v9.06h.06c.42-.75,1.08-1.41,1.89-1.86.78-.45,1.71-.75,2.7-.75,1.95,0,5.07,1.2,5.07,6.21v8.64h-2.64v-8.34c0-2.34-.87-4.319-3.36-4.319-1.71,0-3.06,1.199-3.54,2.64-.15.36-.18.75-.18,1.26v8.76h-2.64v-21.299Z" fill="#000" stroke-width="0"/>
      <path d="M261.002,968.509c.06,3.569,2.34,5.039,4.98,5.039,1.89,0,3.03-.33,4.02-.75l.45,1.891c-.93.42-2.52.899-4.83.899-4.47,0-7.14-2.939-7.14-7.319s2.58-7.83,6.81-7.83c4.74,0,6,4.17,6,6.84,0,.54-.06.96-.09,1.23h-10.2ZM268.742,966.618c.03-1.68-.69-4.29-3.66-4.29-2.67,0-3.84,2.46-4.05,4.29h7.709Z" fill="#000" stroke-width="0"/>
      <path d="M280.921,953.989h2.64v21.299h-2.64v-21.299Z" fill="#000" stroke-width="0"/>
      <path d="M296.041,975.288l-.21-1.83h-.09c-.81,1.14-2.37,2.16-4.44,2.16-2.94,0-4.44-2.07-4.44-4.17,0-3.51,3.12-5.43,8.73-5.399v-.301c0-1.199-.33-3.359-3.3-3.359-1.35,0-2.76.42-3.78,1.08l-.6-1.74c1.2-.78,2.94-1.29,4.77-1.29,4.44,0,5.52,3.03,5.52,5.94v5.43c0,1.26.06,2.489.24,3.479h-2.4ZM295.651,967.878c-2.88-.06-6.15.45-6.15,3.271,0,1.71,1.14,2.52,2.49,2.52,1.89,0,3.09-1.2,3.51-2.43.09-.27.15-.57.15-.84v-2.521Z" fill="#000" stroke-width="0"/>
      <path d="M302.461,965.299c0-1.71-.03-3.181-.12-4.53h2.31l.09,2.85h.12c.66-1.949,2.25-3.18,4.02-3.18.3,0,.51.03.75.09v2.49c-.27-.06-.54-.09-.9-.09-1.86,0-3.18,1.41-3.54,3.39-.06.36-.12.78-.12,1.23v7.739h-2.61v-9.989Z" fill="#000" stroke-width="0"/>
      <path d="M324.541,960.769c-.06,1.05-.12,2.22-.12,3.99v8.43c0,3.329-.66,5.369-2.07,6.63-1.41,1.319-3.45,1.739-5.28,1.739-1.74,0-3.66-.42-4.83-1.2l.66-2.01c.96.601,2.46,1.141,4.26,1.141,2.7,0,4.68-1.41,4.68-5.07v-1.62h-.06c-.81,1.351-2.37,2.431-4.62,2.431-3.6,0-6.18-3.061-6.18-7.08,0-4.92,3.209-7.71,6.54-7.71,2.52,0,3.9,1.32,4.53,2.521h.06l.12-2.19h2.31ZM321.811,966.498c0-.449-.03-.84-.15-1.199-.48-1.53-1.77-2.79-3.689-2.79-2.52,0-4.32,2.13-4.32,5.489,0,2.851,1.44,5.22,4.29,5.22,1.62,0,3.09-1.02,3.66-2.699.15-.45.21-.96.21-1.41v-2.61Z" fill="#000" stroke-width="0"/>
      <path d="M330.271,968.509c.06,3.569,2.34,5.039,4.98,5.039,1.89,0,3.03-.33,4.02-.75l.45,1.891c-.93.42-2.52.899-4.83.899-4.47,0-7.14-2.939-7.14-7.319s2.58-7.83,6.81-7.83c4.74,0,6,4.17,6,6.84,0,.54-.06.96-.09,1.23h-10.2ZM338.01,966.618c.03-1.68-.69-4.29-3.66-4.29-2.67,0-3.84,2.46-4.05,4.29h7.709Z" fill="#000" stroke-width="0"/>
      <path d="M343.471,972.588c.78.511,2.16,1.05,3.479,1.05,1.92,0,2.82-.96,2.82-2.159,0-1.26-.75-1.95-2.7-2.67-2.61-.931-3.84-2.37-3.84-4.11,0-2.34,1.89-4.26,5.01-4.26,1.47,0,2.76.42,3.57.9l-.66,1.92c-.57-.36-1.62-.84-2.97-.84-1.56,0-2.43.899-2.43,1.979,0,1.2.87,1.74,2.76,2.46,2.52.96,3.81,2.22,3.81,4.38,0,2.55-1.98,4.35-5.43,4.35-1.59,0-3.06-.39-4.08-.99l.66-2.01Z" fill="#000" stroke-width="0"/>
      <path d="M358.89,956.599v4.17h3.78v2.01h-3.78v7.83c0,1.8.51,2.819,1.98,2.819.69,0,1.2-.09,1.53-.18l.12,1.98c-.51.21-1.32.359-2.34.359-1.23,0-2.22-.39-2.85-1.109-.75-.78-1.02-2.07-1.02-3.78v-7.92h-2.25v-2.01h2.25v-3.479l2.58-.69Z" fill="#000" stroke-width="0"/>
      <path d="M174.603,1011.288l-.21-1.83h-.09c-.81,1.14-2.37,2.16-4.44,2.16-2.94,0-4.44-2.07-4.44-4.17,0-3.51,3.12-5.43,8.73-5.399v-.301c0-1.199-.33-3.359-3.3-3.359-1.35,0-2.76.42-3.78,1.08l-.6-1.74c1.2-.78,2.939-1.29,4.77-1.29,4.44,0,5.52,3.03,5.52,5.94v5.43c0,1.26.06,2.489.24,3.479h-2.4ZM174.213,1003.878c-2.88-.06-6.149.45-6.149,3.271,0,1.71,1.14,2.52,2.49,2.52,1.89,0,3.09-1.2,3.51-2.43.09-.27.15-.57.15-.84v-2.521Z" fill="#000" stroke-width="0"/>
      <path d="M193.563,989.989v17.549c0,1.29.03,2.76.12,3.75h-2.37l-.12-2.52h-.06c-.81,1.619-2.58,2.85-4.95,2.85-3.51,0-6.209-2.97-6.209-7.38-.03-4.83,2.97-7.8,6.51-7.8,2.22,0,3.72,1.05,4.379,2.22h.06v-8.669h2.64ZM190.923,1002.679c0-.33-.03-.78-.12-1.11-.39-1.68-1.83-3.06-3.81-3.06-2.73,0-4.35,2.399-4.35,5.609,0,2.94,1.44,5.37,4.29,5.37,1.77,0,3.39-1.17,3.87-3.15.09-.359.12-.72.12-1.14v-2.52Z" fill="#000" stroke-width="0"/>
      <path d="M198.963,996.769l2.85,8.16c.48,1.319.87,2.52,1.17,3.72h.09c.33-1.2.75-2.4,1.23-3.72l2.82-8.16h2.76l-5.7,14.52h-2.52l-5.52-14.52h2.82Z" fill="#000" stroke-width="0"/>
      <path d="M220.292,1011.288l-.21-1.83h-.09c-.81,1.14-2.37,2.16-4.44,2.16-2.94,0-4.44-2.07-4.44-4.17,0-3.51,3.12-5.43,8.73-5.399v-.301c0-1.199-.33-3.359-3.3-3.359-1.35,0-2.76.42-3.78,1.08l-.6-1.74c1.2-.78,2.939-1.29,4.77-1.29,4.44,0,5.52,3.03,5.52,5.94v5.43c0,1.26.06,2.489.24,3.479h-2.4ZM219.902,1003.878c-2.88-.06-6.149.45-6.149,3.271,0,1.71,1.14,2.52,2.49,2.52,1.89,0,3.09-1.2,3.51-2.43.09-.27.15-.57.15-.84v-2.521Z" fill="#000" stroke-width="0"/>
      <path d="M226.713,1000.698c0-1.5-.03-2.729-.12-3.93h2.34l.15,2.4h.06c.72-1.38,2.4-2.73,4.8-2.73,2.01,0,5.13,1.2,5.13,6.18v8.67h-2.64v-8.37c0-2.34-.87-4.289-3.36-4.289-1.74,0-3.09,1.229-3.54,2.699-.12.33-.18.78-.18,1.23v8.729h-2.64v-10.59Z" fill="#000" stroke-width="0"/>
      <path d="M246.422,992.599v4.17h3.78v2.01h-3.78v7.83c0,1.8.51,2.819,1.98,2.819.69,0,1.2-.09,1.53-.18l.12,1.98c-.51.21-1.32.359-2.34.359-1.23,0-2.22-.39-2.85-1.109-.75-.78-1.02-2.07-1.02-3.78v-7.92h-2.25v-2.01h2.25v-3.479l2.58-.69Z" fill="#000" stroke-width="0"/>
      <path d="M261.212,1011.288l-.21-1.83h-.09c-.81,1.14-2.37,2.16-4.44,2.16-2.94,0-4.44-2.07-4.44-4.17,0-3.51,3.12-5.43,8.73-5.399v-.301c0-1.199-.33-3.359-3.3-3.359-1.35,0-2.76.42-3.78,1.08l-.6-1.74c1.2-.78,2.94-1.29,4.77-1.29,4.44,0,5.52,3.03,5.52,5.94v5.43c0,1.26.06,2.489.24,3.479h-2.4ZM260.822,1003.878c-2.88-.06-6.15.45-6.15,3.271,0,1.71,1.14,2.52,2.49,2.52,1.89,0,3.09-1.2,3.51-2.43.09-.27.15-.57.15-.84v-2.521Z" fill="#000" stroke-width="0"/>
      <path d="M280.142,996.769c-.06,1.05-.12,2.22-.12,3.99v8.43c0,3.329-.66,5.369-2.07,6.63-1.41,1.319-3.45,1.739-5.28,1.739-1.74,0-3.66-.42-4.83-1.2l.66-2.01c.96.601,2.459,1.141,4.26,1.141,2.7,0,4.68-1.41,4.68-5.07v-1.62h-.06c-.81,1.351-2.37,2.431-4.62,2.431-3.6,0-6.18-3.061-6.18-7.08,0-4.92,3.209-7.71,6.54-7.71,2.52,0,3.9,1.32,4.53,2.521h.06l.12-2.19h2.31ZM277.412,1002.498c0-.449-.03-.84-.15-1.199-.48-1.53-1.77-2.79-3.689-2.79-2.52,0-4.32,2.13-4.32,5.489,0,2.851,1.44,5.22,4.29,5.22,1.62,0,3.09-1.02,3.66-2.699.15-.45.21-.96.21-1.41v-2.61Z" fill="#000" stroke-width="0"/>
      <path d="M285.872,1004.509c.06,3.569,2.34,5.039,4.98,5.039,1.89,0,3.03-.33,4.02-.75l.45,1.891c-.93.42-2.52.899-4.83.899-4.47,0-7.14-2.939-7.14-7.319s2.58-7.83,6.81-7.83c4.74,0,6,4.17,6,6.84,0,.54-.06.96-.09,1.23h-10.2ZM293.611,1002.618c.03-1.68-.69-4.29-3.66-4.29-2.67,0-3.84,2.46-4.05,4.29h7.709Z" fill="#000" stroke-width="0"/>
      <path d="M318.931,1003.908c0,5.37-3.72,7.71-7.23,7.71-3.93,0-6.959-2.88-6.959-7.47,0-4.859,3.18-7.71,7.2-7.71,4.169,0,6.99,3.03,6.99,7.47ZM307.412,1004.059c0,3.18,1.83,5.579,4.41,5.579,2.52,0,4.41-2.369,4.41-5.64,0-2.46-1.23-5.579-4.35-5.579s-4.47,2.88-4.47,5.64Z" fill="#000" stroke-width="0"/>
      <path d="M323.072,996.769l2.85,8.16c.48,1.319.87,2.52,1.17,3.72h.09c.33-1.2.75-2.4,1.23-3.72l2.82-8.16h2.76l-5.7,14.52h-2.52l-5.52-14.52h2.82Z" fill="#000" stroke-width="0"/>
      <path d="M337.651,1004.509c.06,3.569,2.34,5.039,4.98,5.039,1.89,0,3.03-.33,4.02-.75l.45,1.891c-.93.42-2.52.899-4.83.899-4.47,0-7.14-2.939-7.14-7.319s2.58-7.83,6.81-7.83c4.74,0,6,4.17,6,6.84,0,.54-.06.96-.09,1.23h-10.2ZM345.391,1002.618c.03-1.68-.69-4.29-3.66-4.29-2.67,0-3.84,2.46-4.05,4.29h7.709Z" fill="#000" stroke-width="0"/>
      <path d="M351.211,1001.299c0-1.71-.03-3.181-.12-4.53h2.31l.09,2.85h.12c.66-1.949,2.25-3.18,4.02-3.18.3,0,.51.03.75.09v2.49c-.27-.06-.54-.09-.9-.09-1.86,0-3.18,1.41-3.54,3.39-.06.36-.12.78-.12,1.23v7.739h-2.61v-9.989Z" fill="#000" stroke-width="0"/>
      <path d="M367.381,1000.698c0-1.5-.03-2.729-.12-3.93h2.31l.12,2.34h.09c.81-1.38,2.16-2.67,4.56-2.67,1.98,0,3.48,1.2,4.11,2.91h.06c.45-.81,1.02-1.44,1.62-1.89.87-.66,1.83-1.021,3.21-1.021,1.92,0,4.77,1.26,4.77,6.3v8.55h-2.58v-8.22c0-2.79-1.02-4.47-3.15-4.47-1.5,0-2.67,1.11-3.12,2.399-.12.36-.21.841-.21,1.32v8.97h-2.58v-8.699c0-2.311-1.02-3.99-3.03-3.99-1.65,0-2.85,1.32-3.27,2.64-.15.391-.21.84-.21,1.29v8.76h-2.58v-10.59Z" fill="#000" stroke-width="0"/>
      <path d="M393.871,1004.509c.06,3.569,2.34,5.039,4.98,5.039,1.89,0,3.03-.33,4.02-.75l.45,1.891c-.93.42-2.52.899-4.83.899-4.47,0-7.14-2.939-7.14-7.319s2.58-7.83,6.81-7.83c4.74,0,6,4.17,6,6.84,0,.54-.06.96-.09,1.23h-10.2ZM401.61,1002.618c.03-1.68-.69-4.29-3.66-4.29-2.67,0-3.84,2.46-4.05,4.29h7.709Z" fill="#000" stroke-width="0"/>
      <path d="M407.431,1000.698c0-1.5-.03-2.729-.12-3.93h2.34l.15,2.4h.06c.72-1.38,2.4-2.73,4.8-2.73,2.01,0,5.13,1.2,5.13,6.18v8.67h-2.64v-8.37c0-2.34-.87-4.289-3.36-4.289-1.74,0-3.09,1.229-3.54,2.699-.12.33-.18.78-.18,1.23v8.729h-2.64v-10.59Z" fill="#000" stroke-width="0"/>
    </g>
  </g>
  <g id="bars">
    <rect x="993.075" y="404.143" width="306.495" height="14.177" fill="#fce883" isolation="isolate" stroke-width="0"/>
    <rect x="1023.945" y="491.567" width="30.87" height="14.177" fill="#fce883" isolation="isolate" stroke-width="0"/>
    <rect x="931.335" y="447.037" width="491.715" height="14.177" fill="#fce883" isolation="isolate" stroke-width="0"/>
    <rect x="993.075" y="534.098" width="123.48" height="14.177" fill="#fce883" isolation="isolate" stroke-width="0"/>
    <rect x="810.06" y="576.991" width="491.715" height="14.177" fill="#fce883" isolation="isolate" stroke-width="0"/>
    <rect x="871.8" y="664.415" width="674.73" height="14.177" fill="#fce883" isolation="isolate" stroke-width="0"/>
    <rect x="902.67" y="621.521" width="306.495" height="14.177" fill="#f58025" isolation="isolate" stroke-width="0"/>
    <rect x="1054.815" y="706.945" width="368.235" height="14.177" fill="#f58025" isolation="isolate" stroke-width="0"/>
    <rect x="1116.555" y="752.476" width="306.495" height="14.177" fill="#fce883" isolation="isolate" stroke-width="0"/>
    <rect x="592.97" y="794.369" width="705.6" height="14.177" fill="#fce883" isolation="isolate" stroke-width="0"/>
    <rect x="717.45" y="838.899" width="674.73" height="14.177" fill="#fce883" isolation="isolate" stroke-width="0"/>
  </g>
  <g id="dots">
    <ellipse cx="991.709" cy="411.136" rx="11.025" ry="11.814" fill="#fce883" stroke-width="0"/>
    <ellipse cx="930.348" cy="454.59" rx="11.025" ry="11.814" fill="#fce883" stroke-width="0"/>
    <ellipse cx="1421.305" cy="454.59" rx="11.025" ry="11.814" fill="#f58025" stroke-width="0"/>
    <ellipse cx="1022.407" cy="498.043" rx="11.025" ry="11.814" fill="#fce883" stroke-width="0"/>
    <ellipse cx="1053.07" cy="498.043" rx="11.025" ry="11.814" fill="#f58025" stroke-width="0"/>
    <ellipse cx="991.709" cy="541.497" rx="11.025" ry="11.814" fill="#fce883" stroke-width="0"/>
    <ellipse cx="1114.466" cy="541.497" rx="11.025" ry="11.814" fill="#f58025" stroke-width="0"/>
    <ellipse cx="807.592" cy="584.95" rx="11.025" ry="11.814" fill="#fce883" stroke-width="0"/>
    <ellipse cx="1298.549" cy="584.95" rx="11.025" ry="11.814" fill="#f58025" stroke-width="0"/>
    <ellipse cx="1206.49" cy="628.403" rx="11.025" ry="11.814" fill="#fce883" stroke-width="0"/>
    <ellipse cx="899.651" cy="628.403" rx="11.025" ry="11.814" fill="#f58025" stroke-width="0"/>
    <ellipse cx="868.987" cy="671.857" rx="11.025" ry="11.814" fill="#fce883" stroke-width="0"/>
    <ellipse cx="1544.027" cy="671.857" rx="11.025" ry="11.814" fill="#f58025" stroke-width="0"/>
    <ellipse cx="1421.305" cy="715.31" rx="11.025" ry="11.814" fill="#fce883" stroke-width="0"/>
    <ellipse cx="1053.07" cy="715.31" rx="11.025" ry="11.814" fill="#f58025" stroke-width="0"/>
    <ellipse cx="1114.466" cy="758.764" rx="11.025" ry="11.814" fill="#fce883" stroke-width="0"/>
    <ellipse cx="1421.305" cy="758.764" rx="11.025" ry="11.814" fill="#f58025" stroke-width="0"/>
    <ellipse cx="592.811" cy="802.217" rx="11.025" ry="11.814" fill="#fce883" stroke-width="0"/>
    <ellipse cx="1298.549" cy="802.217" rx="11.025" ry="11.814" fill="#f58025" stroke-width="0"/>
    <ellipse cx="715.533" cy="845.671" rx="11.025" ry="11.814" fill="#fce883" stroke-width="0"/>
    <ellipse cx="1390.608" cy="845.671" rx="11.025" ry="11.814" fill="#f58025" stroke-width="0"/>
    <ellipse cx="1298.549" cy="411.136" rx="11.025" ry="11.814" fill="#f58025" stroke-width="0"/>
  </g>
<style>
#g-graphsgender_finalcolor-Artboard_1-interactions-img rect, #g-graphsgender_finalcolor-Artboard_1-interactions-img circle, #g-graphsgender_finalcolor-Artboard_1-interactions-img path, #g-graphsgender_finalcolor-Artboard_1-interactions-img line, #g-graphsgender_finalcolor-Artboard_1-interactions-img polyline, #g-graphsgender_finalcolor-Artboard_1-interactions-img polygon { vector-effect: non-scaling-stroke; }
</style>
</svg>
